<svg width="26" height="30" viewBox="0 0 26 30" fill="none" xmlns="http://www.w3.org/2000/svg">
<path d="M18.4406 0.0232229C17.0419 0.184744 15.0624 1.41849 14.0795 2.73815C13.5125 3.4942 13.1791 4.21589 12.8904 5.30186L12.7461 5.84485L12.753 6.4222C12.7598 6.73837 12.777 7.03392 12.7942 7.08203C12.8389 7.19544 12.9248 7.21262 13.5296 7.21606C14.0314 7.21949 14.0623 7.21606 14.4919 7.0889C15.6397 6.75555 16.4817 6.25381 17.0797 5.54243C17.224 5.36716 17.4405 5.13347 17.5539 5.01662C17.9319 4.64547 18.4165 3.82068 18.6846 3.10587C18.9526 2.38761 19.0729 1.72091 19.1073 0.772405L19.1279 0.164124L19.0385 0.0747719C18.9389 -0.0248899 18.8839 -0.0283265 18.4406 0.0232229Z" fill="white"/>
<path d="M18.1213 7.12576C17.4409 7.16013 15.6092 7.66875 14.2929 8.18424C13.4956 8.49697 13.4956 8.49697 13.3376 8.52446C13.0626 8.56914 12.3891 8.37325 11.2309 7.90587C10.6158 7.66187 9.98342 7.4763 9.04867 7.26323C8.65689 7.17731 8.00737 7.167 7.72557 7.24604C7.61216 7.27697 7.25475 7.34914 6.93171 7.40413C6.23751 7.52785 5.84574 7.64813 5.32337 7.90587C3.74597 8.67567 2.67031 9.78226 1.81803 11.5143C1.44 12.2772 1.16163 13.023 0.955435 13.8169C0.649577 14.9956 0.642703 17.2569 0.941689 18.6281C0.976055 18.7965 1.00698 18.9958 1.00698 19.0749C1.00698 19.2398 1.03791 19.3635 1.32659 20.5011C1.59465 21.5527 1.56715 21.4668 2.07921 22.7521C2.79746 24.5563 3.02428 24.9549 4.49171 26.9791C5.09312 27.8073 5.39898 28.1853 5.8423 28.6355C6.30625 29.1098 6.68084 29.3847 7.21008 29.6459C7.80805 29.938 8.06923 30.0033 8.61909 29.9999C9.32359 29.9999 9.89064 29.8555 10.9697 29.4019C11.6502 29.1167 11.6949 29.1029 12.932 28.8486C13.3032 28.7696 13.6469 28.7764 14.1692 28.8624C14.3479 28.8898 14.616 28.9311 14.7603 28.9517C15.0524 28.9929 15.348 29.0892 16.1109 29.395C17.0319 29.7662 17.6814 29.9311 18.3619 29.9724C19.3516 30.0342 20.307 29.5944 21.3277 28.6149C22.369 27.608 23.3415 26.2299 24.3244 24.3707C24.589 23.869 25.0117 22.8414 25.0839 22.5321C25.1148 22.4084 25.1664 22.2537 25.2042 22.1919C25.2386 22.13 25.2695 22.0441 25.2695 22.0063C25.2695 21.8826 25.0186 21.6867 24.5753 21.4633C23.7402 21.0337 22.9188 20.2983 22.3655 19.4701C21.9703 18.8755 21.5717 17.9855 21.472 17.4597C21.3036 16.5936 21.2555 15.6451 21.3517 14.9853C21.3758 14.8135 21.4617 14.4526 21.5442 14.1777C21.8982 12.9852 22.1422 12.5075 22.6955 11.9164C22.8639 11.7411 23.0013 11.5796 23.0013 11.5659C23.0013 11.5074 23.8433 10.8029 24.0495 10.6895C24.1629 10.6242 24.3072 10.5246 24.3691 10.4627C24.5581 10.2771 24.5306 10.205 24.0564 9.64824C23.4206 8.90249 22.6199 8.29077 21.6782 7.8337C21.0906 7.54847 20.685 7.40756 20.118 7.29072C19.5372 7.167 18.6712 7.09483 18.1213 7.12576Z" fill="white"/>
</svg>
